<svg id="Manila_copy" data-name="Manila copy" xmlns="http://www.w3.org/2000/svg" width="999.421" height="291.46" viewBox="0 0 662.658 193.25">
  <metadata><?xpacket begin="﻿" id="W5M0MpCehiHzreSzNTczkc9d"?>
<x:xmpmeta xmlns:x="adobe:ns:meta/" x:xmptk="Adobe XMP Core 5.6-c138 79.159824, 2016/09/14-01:09:01        ">
   <rdf:RDF xmlns:rdf="http://www.w3.org/1999/02/22-rdf-syntax-ns#">
      <rdf:Description rdf:about=""/>
   </rdf:RDF>
</x:xmpmeta>
                                                                                                    
                                                                                                    
                                                                                                    
                                                                                                    
                                                                                                    
                                                                                                    
                                                                                                    
                                                                                                    
                                                                                                    
                                                                                                    
                                                                                                    
                                                                                                    
                                                                                                    
                                                                                                    
                                                                                                    
                                                                                                    
                                                                                                    
                                                                                                    
                                                                                                    
                                                                                                    
                           
<?xpacket end="w"?></metadata>
<defs>
    <style>
      .cls-1 {
        fill: #fa6263;
      }

      .cls-1, .cls-2 {
        fill-rule: evenodd;
      }

      .cls-2 {
        fill: #fa966a;
      }
    </style>
  </defs>
  <path id="Manila" class="cls-1" d="M797.715,966.287l15.739,19.351,12.126-10.062-13.932-17.8,5.16-114.3-31.219-24-11.868,9.546,27.864,20.125Zm-60.631-1.806L751.533,985.9l12.9-10.062L750.243,957l0.774-114.811-24.253-19.351-11.094,8.772,22.188,18.061Zm-62.436,2.58L688.58,986.67l11.61-10.578-12.384-16.771,1.032-116.359L673.1,824.127l-9.031,8.773,10.579,11.094V967.061Zm237.627-5.934,13.417,22.447L935.5,973l-9.8-14.965V881.4l-21.673-27.348-10.578,8,19.092,24.51Zm-53.148-73.273,11.61,19.351,11.094-6.45-11.352-21.673Zm-2.581,76.111,22.963,23.479,11.094-8-20.9-22.963,1.548-27.864-12.9,8.514Zm180.6-.774,16,19.093,11.09-10.32-13.41-15.223,1.8-74.047-21.15-24.51-12.9,10.836,20.89,20.64Zm-57.016.516L996.646,982.8,1009.8,973l-14.444-16.255,0.258-72.757L979.1,864.892l-11.1,9.288L981.166,889.4ZM1091.34,815.871l19.09,27.091,8.77-6.45-15.99-29.671Zm13.16,147.836,16.51,19.093,11.35-8.256L1119.72,960.1l-0.26-82.819-9.55-18.576-13.93,8.772,9.81,14.448Zm68.37,3.87,17.28,19.093,10.07-9.8-14.71-15.739-0.26-137-10.83-18.576-12.9,9.8,9.8,14.448Zm113.01-6.45,13.41,22.447L1309.1,973l-9.81-14.965V881.4l-21.67-27.348-10.58,8,19.09,24.51Zm-53.15-73.273,11.61,19.351,11.09-6.45-11.35-21.673Zm-2.58,76.111,22.96,23.479,11.09-8-20.9-22.963,1.55-27.864-12.9,8.514Z" transform="translate(-664.062 -794.188)"/>
  <path id="Manila-2" data-name="Manila" class="cls-2" d="M826.676,972.738l11.61-9.805-10.836-14.19,5.418-111.715-36.121-28.123-8.514,6.966,31.735,25.8-4.9,114.553ZM766.045,973l11.61-9.031L766.3,948.485l1.548-115.069-26.058-24L729.15,819.483l25.027,20.9-0.516,115.069Zm-63.985-.258,11.352-10.063-9.546-11.61L705.93,834.19l-20.9-23.737-10.062,9.8L692,841.156l-0.774,116.617Zm235.306-2.064,15.738-7.483-12.126-15.48,1.548-71.983-27.091-31.476-9.288,6.708L928.594,879.6v76.885ZM883.7,898.432l11.094-6.45-10.836-25.026-11.094,8.772Zm8.772,78.176,11.61-8.256-17.028-18.577,0.774-23.22,14.706-10.836-2.838-7.482-25.026,16.512-1.29,29.928Zm173.377-8.256,11.87-11.1L1066.63,944.1l3.1-66.307-26.32-30.96-9.55,7.74,21.67,25.542-1.29,76.111Zm-53.92,1.548,11.61-8.773-11.35-12.384-1.29-71.209-17.544-26.058-11.868,9.8L998.516,881.4l0.258,74.821Zm109.14-136.226,9.55-6.709-14.97-31.218-9.8,7.482Zm13.68,137.774,13.41-9.8-12.9-12.9,2.07-75.6-14.45-23.736-10.32,6.45,9.8,18.834,0.78,84.883Zm67.34,1.806,11.35-10.837-13.42-12.126,1.55-132.356L1187.38,794.2l-10.58,8,11.61,19.35,0.52,138.032Zm108.88-2.58,15.73-7.483-12.12-15.48,1.55-71.983-27.09-31.476-9.29,6.708,22.44,28.638v76.885Zm-53.67-72.242,11.09-6.45-10.83-25.026-11.1,8.772Zm8.77,78.176,11.61-8.256-17.03-18.577,0.78-23.22,14.71-10.836-2.84-7.482-25.03,16.512-1.29,29.928Z" transform="translate(-664.062 -794.188)"/>
</svg>
